<?xml version="1.0" encoding="UTF-8" standalone="no"?>
<!DOCTYPE svg PUBLIC "-//W3C//DTD SVG 1.1//EN" "http://www.w3.org/Graphics/SVG/1.1/DTD/svg11.dtd">
<svg width="100%" height="100%" viewBox="0 0 100 100" version="1.1" xmlns="http://www.w3.org/2000/svg" xmlns:xlink="http://www.w3.org/1999/xlink" xml:space="preserve" xmlns:serif="http://www.serif.com/" style="fill-rule:evenodd;clip-rule:evenodd;stroke-miterlimit:1.5;">
    <g transform="matrix(1,0,0,1,-230,-460)">
        <g id="Black-Market" serif:id="Black Market" transform="matrix(1,0,0,1,130,460)">
            <rect x="100" y="0" width="100" height="100" style="fill:none;"/>
            <g transform="matrix(1.07527,0,0,1.07527,-12.3657,-3.22586)">
                <g transform="matrix(0.707107,-0.707107,0.707107,0.707107,-164.016,-193.391)">
                    <path d="M11,400L12.658,415.342L31,434L46,434L90,389L90,374L72.342,356.658L57,355L11,400Z" style="fill:none;stroke:black;stroke-width:3.72px;"/>
                </g>
                <g transform="matrix(0.707107,-0.707107,0.707107,0.707107,-164.016,-193.391)">
                    <path d="M57,355L58.425,368.691L77,387L91,388" style="fill:none;stroke:black;stroke-width:3.72px;"/>
                </g>
                <g transform="matrix(0.707107,-0.707107,0.707107,0.707107,-164.016,-193.391)">
                    <path d="M12.201,414.886L58.425,368.691" style="fill:none;stroke:black;stroke-width:1.86px;"/>
                </g>
                <g transform="matrix(0.707107,-0.707107,0.707107,0.707107,-164.016,-193.391)">
                    <path d="M77,387L31,433" style="fill:none;stroke:black;stroke-width:1.86px;"/>
                </g>
            </g>
            <g transform="matrix(1.68762,0,0,1.65453,-333.629,-769.578)">
                <g transform="matrix(52,0,0,52,279.794,518.963)">
                    <path d="M0.177,-0.667L0.166,-0.193L0.093,-0.193L0.083,-0.667L0.177,-0.667ZM0.176,-0.104L0.176,0L0.085,0L0.085,-0.104L0.176,-0.104Z" style="fill-rule:nonzero;"/>
                </g>
            </g>
        </g>
    </g>
</svg>
