<?xml version="1.0" encoding="UTF-8" standalone="no"?>
<!DOCTYPE svg PUBLIC "-//W3C//DTD SVG 1.1//EN" "http://www.w3.org/Graphics/SVG/1.1/DTD/svg11.dtd">
<svg width="100%" height="100%" viewBox="0 0 100 100" version="1.1" xmlns="http://www.w3.org/2000/svg" xmlns:xlink="http://www.w3.org/1999/xlink" xml:space="preserve" xmlns:serif="http://www.serif.com/" style="fill-rule:evenodd;clip-rule:evenodd;stroke-miterlimit:1.5;">
    <g transform="matrix(1,0,0,1,0,-345)">
        <g id="Commodities" transform="matrix(1,0,0,1,-100,345)">
            <rect x="100" y="0" width="100" height="100" style="fill:none;"/>
            <clipPath id="_clip1">
                <rect x="100" y="0" width="100" height="100"/>
            </clipPath>
            <g clip-path="url(#_clip1)">
                <g transform="matrix(1.15,0,0,1.15,92.35,-404.175)">
                    <path d="M11,400L12,416L31,434L46,434L90,389L90,374L73,356L57,355L11,400Z" style="fill:none;stroke:black;stroke-width:3.48px;"/>
                </g>
                <g transform="matrix(1.15,0,0,1.15,92.35,-404.175)">
                    <path d="M57,355L58,370L77,387L91,388" style="fill:none;stroke:black;stroke-width:3.48px;"/>
                </g>
                <g transform="matrix(1.15,0,0,1.15,92.35,-404.175)">
                    <path d="M12,416L58,370" style="fill:none;stroke:black;stroke-width:1.74px;"/>
                </g>
                <g transform="matrix(1.15,0,0,1.15,92.35,-404.175)">
                    <path d="M77,387L31,433" style="fill:none;stroke:black;stroke-width:1.74px;"/>
                </g>
            </g>
        </g>
    </g>
</svg>
