<?xml version="1.0" encoding="UTF-8" standalone="no"?>
<!DOCTYPE svg PUBLIC "-//W3C//DTD SVG 1.1//EN" "http://www.w3.org/Graphics/SVG/1.1/DTD/svg11.dtd">
<svg width="100%" height="100%" viewBox="0 0 100 100" version="1.1" xmlns="http://www.w3.org/2000/svg" xmlns:xlink="http://www.w3.org/1999/xlink" xml:space="preserve" xmlns:serif="http://www.serif.com/" style="fill-rule:evenodd;clip-rule:evenodd;stroke-linejoin:round;stroke-miterlimit:2;">
    <g transform="matrix(1,0,0,1,-345,-115)">
        <g id="Itinery" transform="matrix(1,0,0,1,245,115)">
            <rect x="100" y="0" width="100" height="100" style="fill:none;"/>
            <g transform="matrix(1.21136,0,0,1.21136,-328.032,-146.845)">
                <circle cx="365" cy="182" r="10"/>
            </g>
            <g transform="matrix(0.908517,0,0,0.908517,-176.309,-130.492)">
                <circle cx="365" cy="182" r="10"/>
            </g>
            <g transform="matrix(0.681388,0,0,0.681388,-57.5205,-102.934)">
                <circle cx="365" cy="182" r="10"/>
            </g>
            <g transform="matrix(1.10447,0,0,1.02782,-285.278,-119.315)">
                <path d="M400.182,152.018L364.766,192.384C362.973,194.254 360.105,194.208 358.364,192.281C356.624,190.354 356.667,187.272 358.46,185.402L397.357,148.288C397.58,148.055 397.846,147.875 398.139,147.759L431.419,135.902C432.002,135.672 432.648,135.994 432.862,136.62C433.076,137.246 432.776,137.94 432.193,138.17L400.182,152.018Z"/>
            </g>
        </g>
    </g>
</svg>
