<?xml version="1.0" encoding="UTF-8" standalone="no"?>
<!DOCTYPE svg PUBLIC "-//W3C//DTD SVG 1.1//EN" "http://www.w3.org/Graphics/SVG/1.1/DTD/svg11.dtd">
<svg width="100%" height="100%" viewBox="0 0 100 100" version="1.1" xmlns="http://www.w3.org/2000/svg" xmlns:xlink="http://www.w3.org/1999/xlink" xml:space="preserve" xmlns:serif="http://www.serif.com/" style="fill-rule:evenodd;clip-rule:evenodd;stroke-linejoin:bevel;stroke-miterlimit:1.5;">
    <g transform="matrix(1,0,0,1,-345,-230)">
        <g id="Logo" transform="matrix(1,0,0,1,245,230)">
            <rect x="100" y="0" width="100" height="100" style="fill:none;"/>
            <g transform="matrix(2.6282,0,0,2.57667,-830.424,-611.057)">
                <g transform="matrix(20.1811,0,0,20.1811,355.65,253.494)">
                    <path d="M0.147,-0.502L0.147,-0.324L0.434,-0.324L0.434,-0.256L0.147,-0.256L0.147,0L0.07,0L0.07,-0.571L0.441,-0.571L0.441,-0.502L0.147,-0.502Z" style="fill-rule:nonzero;"/>
                </g>
                <g transform="matrix(20.1811,0,0,20.1811,365.11,253.494)">
                    <path d="M0.448,-0.201L0.525,-0.201L0.525,-0.173C0.526,-0.126 0.522,-0.092 0.515,-0.072C0.5,-0.03 0.466,-0.006 0.415,0.003C0.395,0.006 0.346,0.008 0.268,0.008C0.232,0.008 0.207,0.007 0.192,0.006C0.177,0.004 0.163,0.001 0.148,-0.004C0.091,-0.024 0.058,-0.074 0.051,-0.156C0.048,-0.194 0.046,-0.235 0.046,-0.278C0.046,-0.367 0.048,-0.425 0.052,-0.453C0.059,-0.497 0.082,-0.53 0.122,-0.552C0.147,-0.566 0.18,-0.575 0.221,-0.577C0.241,-0.578 0.278,-0.579 0.331,-0.579C0.381,-0.579 0.416,-0.576 0.436,-0.569C0.481,-0.555 0.508,-0.522 0.517,-0.472C0.52,-0.453 0.522,-0.43 0.522,-0.401C0.522,-0.398 0.522,-0.393 0.521,-0.386L0.445,-0.386C0.444,-0.398 0.444,-0.407 0.444,-0.411C0.444,-0.457 0.436,-0.485 0.421,-0.496C0.408,-0.506 0.378,-0.51 0.331,-0.51C0.268,-0.51 0.223,-0.508 0.196,-0.505C0.179,-0.503 0.166,-0.498 0.156,-0.49C0.147,-0.483 0.14,-0.472 0.135,-0.457C0.13,-0.441 0.127,-0.414 0.127,-0.376C0.127,-0.242 0.131,-0.158 0.138,-0.125C0.142,-0.104 0.15,-0.088 0.162,-0.08C0.175,-0.069 0.196,-0.064 0.225,-0.063C0.243,-0.062 0.262,-0.062 0.283,-0.062C0.33,-0.062 0.365,-0.063 0.386,-0.066C0.408,-0.069 0.424,-0.075 0.432,-0.083C0.443,-0.094 0.449,-0.118 0.449,-0.157C0.449,-0.17 0.448,-0.185 0.448,-0.201Z" style="fill-rule:nonzero;"/>
                </g>
            </g>
            <g transform="matrix(1.27666,0,0,1.25162,-399.548,-278.796)">
                <g transform="matrix(41.5461,0,0,41.5461,411.966,289.951)">
                    <path d="M0.71,-0.571L0.71,0L0.633,0L0.633,-0.5L0.427,0L0.354,0L0.147,-0.5L0.147,0L0.07,0L0.07,-0.571L0.191,-0.571L0.39,-0.083L0.588,-0.571L0.71,-0.571Z" style="fill-rule:nonzero;"/>
                </g>
                <g transform="matrix(41.5461,0,0,41.5461,444.383,289.951)">
                    <path d="M0.482,-0.405L0.405,-0.405C0.405,-0.432 0.404,-0.451 0.401,-0.462C0.397,-0.484 0.384,-0.498 0.361,-0.504C0.347,-0.508 0.321,-0.51 0.285,-0.51C0.233,-0.51 0.2,-0.508 0.185,-0.506C0.157,-0.501 0.139,-0.489 0.131,-0.468C0.126,-0.456 0.124,-0.44 0.124,-0.419C0.124,-0.394 0.127,-0.374 0.133,-0.36C0.14,-0.345 0.158,-0.336 0.187,-0.332C0.197,-0.331 0.228,-0.329 0.279,-0.327C0.335,-0.325 0.374,-0.322 0.395,-0.318C0.436,-0.309 0.464,-0.289 0.479,-0.258C0.488,-0.238 0.493,-0.206 0.493,-0.164C0.493,-0.103 0.483,-0.06 0.462,-0.038C0.442,-0.014 0.412,0 0.373,0.003C0.343,0.006 0.303,0.008 0.253,0.008C0.192,0.008 0.151,0.005 0.13,-0.002C0.081,-0.018 0.053,-0.055 0.046,-0.115C0.044,-0.127 0.043,-0.152 0.042,-0.187L0.12,-0.187L0.12,-0.166C0.12,-0.138 0.123,-0.117 0.126,-0.104C0.13,-0.091 0.137,-0.081 0.147,-0.074C0.157,-0.067 0.172,-0.064 0.192,-0.063C0.215,-0.062 0.242,-0.062 0.272,-0.062C0.315,-0.062 0.345,-0.063 0.362,-0.066C0.38,-0.07 0.393,-0.076 0.4,-0.085C0.41,-0.097 0.415,-0.125 0.415,-0.171C0.415,-0.194 0.413,-0.21 0.408,-0.221C0.401,-0.236 0.385,-0.245 0.359,-0.249C0.347,-0.25 0.315,-0.252 0.263,-0.254C0.212,-0.256 0.18,-0.258 0.167,-0.26C0.124,-0.266 0.092,-0.282 0.072,-0.309C0.055,-0.331 0.046,-0.365 0.046,-0.411C0.046,-0.478 0.061,-0.522 0.091,-0.545C0.114,-0.563 0.143,-0.573 0.179,-0.576C0.205,-0.578 0.235,-0.579 0.269,-0.579C0.333,-0.579 0.378,-0.575 0.402,-0.567C0.451,-0.551 0.478,-0.512 0.482,-0.45C0.482,-0.443 0.482,-0.428 0.482,-0.405Z" style="fill-rule:nonzero;"/>
                </g>
            </g>
            <g transform="matrix(0.784361,0.412813,-0.420776,0.799491,-43.3015,-336.184)">
                <path d="M377.942,278.509L409.021,262.324L411.602,261.034L412.892,260.799L416.234,257.926L417.759,258.102L414.534,261.269L416.351,261.386L419.811,258.454L420.163,257.691L422.391,256.519L423.036,257.046L424.092,256.284L424.913,256.401L426.379,256.577L427.024,256.401L426.907,255.463L427.786,254.408L428.439,253.929L431.633,252.68L432.21,252.656L439.776,249.869L440.28,249.918L440.592,250.158L441.865,250.686L441.985,252.271L441.169,253.112L440.088,253.761L439.391,255.394L437.109,256.691L436.029,258.324L431.537,261.231L430.552,261.086L430.072,261.855L427.934,263.008L427.31,262.816L425.028,264.209L425.484,264.665L424.812,265.41L424.259,266.13L422.842,267.067L422.602,266.899L421.617,267.716L421.881,268.22L416.909,270.934L411.001,274.273L409.079,275.378L405.62,277.395L405.236,277.299L399.207,280.542L400.456,282.199L400.792,283.016L402.186,282.704L402.69,282.56L403.122,282.848L403.891,284.817L403.747,285.154L403.194,285.418L402.81,286.211L401.321,286.931L397.598,288.949L397.622,289.165L395.941,289.982L395.604,289.669L395.388,289.765L394.571,289.333L393.755,287.46L394.235,286.907L393.731,285.922L393.875,285.226L393.347,284.913L393.202,284.505L392.554,284.889L392.073,284.481L385.324,288.156L385.756,288.709L384.147,289.429L384.363,289.982L383.691,290.318L380.857,291.807L380.664,291.567L375.861,294.161L376.125,294.593L374.996,295.242L374.732,294.713L366.709,299.301L366.973,299.637L366.205,300.118L362.434,304.753L354.82,308.668L354.483,308.524L354.195,308.164L351.745,308.741L350.809,307.059L350.881,306.267L352.058,305.21L353.186,304.321L352.874,303.745L349.439,303.6L348.455,303.576L347.422,301.823L347.638,301.222L349.391,299.685L349.175,298.821L350.304,298.052L350.424,297.74L350.953,297.307L351.025,297.019L351.649,296.755L351.529,296.491L350.712,296.323L349.872,296.707L349.223,296.779L348.503,297.043L348.07,296.803L347.35,295.314L347.422,294.785L348.214,294.233L348.983,293.56L348.863,293.032L351.721,291.351L350.736,290.582L351.553,290.078L352.73,290.774L353.186,290.39L353.114,289.909L356.021,288.444L356.381,288.757L358.014,287.772L358.351,287.988L358.711,287.82L359.023,288.709L359.359,288.516L359.72,288.42L360.152,288.757L360.945,288.588L361.209,289.045L369.616,284.577L368.991,283.568L373.675,281.431L373.963,280.998L373.987,280.662L377.942,278.509Z" style="stroke:white;stroke-width:1.12px;"/>
            </g>
        </g>
    </g>
</svg>
