<?xml version="1.0" encoding="UTF-8" standalone="no"?>
<!DOCTYPE svg PUBLIC "-//W3C//DTD SVG 1.1//EN" "http://www.w3.org/Graphics/SVG/1.1/DTD/svg11.dtd">
<svg width="100%" height="100%" viewBox="0 0 100 100" version="1.1" xmlns="http://www.w3.org/2000/svg" xmlns:xlink="http://www.w3.org/1999/xlink" xml:space="preserve" xmlns:serif="http://www.serif.com/" style="fill-rule:evenodd;clip-rule:evenodd;stroke-miterlimit:1.5;">
    <g transform="matrix(1,0,0,1,-115,-460)">
        <g id="Outfitting" transform="matrix(1,0,0,1,115,460)">
            <rect x="0" y="0" width="100" height="100" style="fill:none;"/>
            <g transform="matrix(1.50005,0,0,1.50005,-173.509,-20.4091)">
                <g transform="matrix(2.19808e-17,-0.358974,0.669551,4.09982e-17,-119.568,182.923)">
                    <path d="M381.429,355.318L420.775,365.271L420.775,413.065L381.429,423.384L353.225,413.065L353.225,365.271L381.429,355.318Z" style="fill:none;stroke:black;stroke-width:4.96px;"/>
                </g>
                <g transform="matrix(1.04,0,0,1,-260.96,-347)">
                    <path d="M370.154,409L402.846,409" style="fill:none;stroke:black;stroke-width:2.61px;stroke-linejoin:bevel;"/>
                </g>
                <g transform="matrix(1,0,0,1,-245,-345)">
                    <path d="M406.773,385L426,385" style="fill:none;stroke:black;stroke-width:2.67px;stroke-linejoin:round;"/>
                </g>
            </g>
        </g>
    </g>
</svg>
